<svg viewBox="0 0 120 120" xmlns="http://www.w3.org/2000/svg"><defs><linearGradient id="cgx" x1="0" y1="0" x2="1" y2="1"><stop offset="0" stop-color="#FFF1BF"/><stop offset=".45" stop-color="#E9BE55"/><stop offset="1" stop-color="#9E6C1A"/></linearGradient><linearGradient id="ogx" x1="0" y1="0" x2="1" y2="0"><stop offset="0" stop-color="#E9BE55" stop-opacity=".15"/><stop offset=".55" stop-color="#F6D987"/><stop offset="1" stop-color="#E9BE55" stop-opacity=".35"/></linearGradient><radialGradient id="sgx"><stop offset="0" stop-color="#FFF8E1"/><stop offset=".3" stop-color="#FFF1BF" stop-opacity=".65"/><stop offset="1" stop-color="#FFF1BF" stop-opacity="0"/></radialGradient></defs><g transform="rotate(-18 58 60)"><path d="M4 60 A54 14 0 0 1 112 60" fill="none" stroke="url(#ogx)" stroke-width="1.4"/></g><path d="M85.6 37.4 A35 35 0 1 0 85.6 82.6" fill="none" stroke="url(#cgx)" stroke-width="13"/><g transform="rotate(-18 58 60)"><path d="M4 60 A54 14 0 0 0 112 60" fill="none" stroke="url(#ogx)" stroke-width="1.8"/></g><circle cx="94" cy="52" r="14" fill="url(#sgx)"/><path d="M94 41.5 L96.2 49.8 L104.5 52 L96.2 54.2 L94 62.5 L91.8 54.2 L83.5 52 L91.8 49.8 Z" fill="#FFF6DA"/></svg>